<?xml version="1.0" encoding="utf-8"?>
<!-- Generator: Adobe Illustrator 21.1.0, SVG Export Plug-In . SVG Version: 6.00 Build 0)  -->
<svg version="1.1" id="Layer_1" xmlns="http://www.w3.org/2000/svg" xmlns:xlink="http://www.w3.org/1999/xlink" x="0px" y="0px"
	 viewBox="0 0 500 500" style="enable-background:new 0 0 500 500;" xml:space="preserve">
<style type="text/css">
	.st0{fill:none;stroke:#000000;stroke-width:3;stroke-miterlimit:10;}
	.st1{fill:none;stroke:#000000;stroke-width:2;stroke-miterlimit:10;}
	.st2{font-family:'SegoePrint';}
	.st3{font-size:48px;}
</style>
<g>
	<g>
		<path class="st0" d="M173.8,120.9l-13.7,20.8c-1.9,2.9-5.3,4-7.6,2.5h0c-2.3-1.5-2.6-5.1-0.8-7.9l13.7-20.8"/>
		<path class="st0" d="M183.2,52.1c7.6-11.5,23.1-14.7,34.6-7.1c11.5,7.6,14.7,23.1,7.1,34.6"/>
		<path class="st0" d="M224.9,79.6l-23.3,35.4c-5.9,9-15.3,13.4-20.8,9.8l-21.7-14.3c-5.5-3.6-5.2-14,0.7-23l23.3-35.4"/>
		<path class="st0" d="M193.8,114.3c-5.5-3.6-7.1-11.1-3.4-16.6l14.3-21.7c3.6-5.5,11.1-7.1,16.6-3.4"/>
		<path class="st0" d="M190.7,52.4c5.6,3.5,7.2,11,3.7,16.6l-13.9,21.9c-3.5,5.6-11,7.2-16.6,3.7"/>
	</g>
	<g>
		<path class="st1" d="M228.4,139.1c0,2.9-1.7,5.2-3.7,5.2s-3.7-2.3-3.7-5.2"/>
		<polyline class="st1" points="220.9,139.6 222.8,133.5 224.7,127.4 226.6,133.5 228.4,139.6 		"/>
	</g>
	<g>
		<path class="st1" d="M216.5,118.8c0.1,2.9-1.5,5.2-3.6,5.3c-2.1,0.1-3.8-2.2-3.9-5.1"/>
		<polyline class="st1" points="209.1,119.5 210.8,113.3 212.5,107.2 214.5,113.2 216.5,119.3 		"/>
	</g>
	<g>
		<path class="st1" d="M230.4,99.1c0,2.9-1.7,5.2-3.7,5.2s-3.7-2.3-3.7-5.2"/>
		<polyline class="st1" points="222.9,99.6 224.8,93.5 226.7,87.4 228.6,93.5 230.4,99.6 		"/>
	</g>
</g>
<text transform="matrix(1 0 0 1 248 80.6665)"><tspan x="0" y="0" class="st2 st3">Melted </tspan><tspan x="0" y="57.6" class="st2 st3">Popsicle</tspan></text>
</svg>
