<?xml version="1.0" encoding="utf-8"?>
<!-- Generator: Adobe Illustrator 21.1.0, SVG Export Plug-In . SVG Version: 6.00 Build 0)  -->
<svg version="1.1" id="Layer_1" xmlns="http://www.w3.org/2000/svg" xmlns:xlink="http://www.w3.org/1999/xlink" x="0px" y="0px"
	 viewBox="0 0 500 500" style="enable-background:new 0 0 500 500;" xml:space="preserve">
<style type="text/css">
	.st0{fill:none;stroke:#FFFFFF;stroke-width:3;stroke-miterlimit:10;}
	.st1{fill:none;stroke:#FFFFFF;stroke-width:2;stroke-miterlimit:10;}
</style>
<g>
	<path class="st0" d="M174.3,139.1l-13.7,20.8c-1.9,2.9-5.3,4-7.6,2.5l0,0c-2.3-1.5-2.6-5.1-0.8-7.9l13.7-20.8"/>
	<path class="st0" d="M183.6,70.2c7.6-11.5,23.1-14.7,34.6-7.1c11.5,7.6,14.7,23.1,7.1,34.6"/>
	<path class="st0" d="M225.4,97.7l-23.3,35.4c-5.9,9-15.3,13.4-20.8,9.8l-21.7-14.3c-5.5-3.6-5.2-14,0.7-23l23.3-35.4"/>
	<path class="st0" d="M194.2,132.4c-5.5-3.6-7.1-11.1-3.4-16.6L205.1,94c3.6-5.5,11.1-7.1,16.6-3.4"/>
	<path class="st0" d="M191.1,70.5c5.6,3.5,7.2,11,3.7,16.6L180.9,109c-3.5,5.6-11,7.2-16.6,3.7"/>
</g>
<g>
	<path class="st1" d="M228.8,157.2c0,2.9-1.7,5.2-3.7,5.2c-2.1,0-3.7-2.3-3.7-5.2"/>
	<polyline class="st1" points="221.4,157.7 223.3,151.6 225.2,145.5 227,151.6 228.8,157.7 	"/>
</g>
<g>
	<path class="st1" d="M217,136.9c0.1,2.9-1.5,5.2-3.6,5.3c-2.1,0.1-3.8-2.2-3.9-5.1"/>
	<polyline class="st1" points="209.5,137.6 211.2,131.4 212.9,125.3 215,131.4 217,137.4 	"/>
</g>
<g>
	<path class="st1" d="M230.8,117.2c0,2.9-1.7,5.2-3.7,5.2c-2.1,0-3.7-2.3-3.7-5.2"/>
	<polyline class="st1" points="223.4,117.7 225.3,111.6 227.2,105.5 229,111.6 230.8,117.7 	"/>
</g>
</svg>
