<?xml version="1.0" encoding="utf-8"?>
<!-- Generator: Adobe Illustrator 21.1.0, SVG Export Plug-In . SVG Version: 6.00 Build 0)  -->
<svg version="1.1" id="Layer_1" xmlns="http://www.w3.org/2000/svg" xmlns:xlink="http://www.w3.org/1999/xlink" x="0px" y="0px"
	 viewBox="0 0 90.3 113" style="enable-background:new 0 0 90.3 113;" xml:space="preserve">
<style type="text/css">
	.st0{fill:none;stroke:#213502;stroke-width:3;stroke-miterlimit:10;}
	.st1{fill:none;stroke:#213502;stroke-width:2;stroke-miterlimit:10;}
</style>
<g>
	<g>
		<path class="st0" d="M26.9,84.4l-13.7,20.8c-1.9,2.9-5.3,4-7.6,2.5l0,0c-2.3-1.5-2.6-5.1-0.8-7.9l13.7-20.8"/>
		<path class="st0" d="M36.3,15.6C43.9,4,59.4,0.9,70.9,8.4s14.7,23.1,7.1,34.6"/>
		<path class="st0" d="M78.1,43.1L54.7,78.5c-5.9,9-15.3,13.4-20.8,9.8L12.2,74C6.7,70.3,7.1,60,13,51l23.3-35.4"/>
		<path class="st0" d="M46.9,77.7c-5.5-3.6-7.1-11.1-3.4-16.6l14.3-21.7c3.6-5.5,11.1-7.1,16.6-3.4"/>
		<path class="st0" d="M43.8,15.8c5.6,3.5,7.2,11,3.7,16.6L33.5,54.3C30,59.9,22.5,61.6,17,58"/>
	</g>
	<g>
		<path class="st1" d="M81.5,102.6c0,2.9-1.7,5.2-3.7,5.2c-2.1,0-3.7-2.3-3.7-5.2"/>
		<polyline class="st1" points="74,103 75.9,97 77.8,90.9 79.7,97 81.5,103.1 		"/>
	</g>
	<g>
		<path class="st1" d="M69.6,82.2c0.1,2.9-1.5,5.2-3.6,5.3c-2.1,0.1-3.8-2.2-3.9-5.1"/>
		<polyline class="st1" points="62.2,82.9 63.9,76.8 65.6,70.7 67.6,76.7 69.7,82.7 		"/>
	</g>
	<g>
		<path class="st1" d="M83.5,62.6c0,2.9-1.7,5.2-3.7,5.2c-2.1,0-3.7-2.3-3.7-5.2"/>
		<polyline class="st1" points="76,63 77.9,57 79.8,50.9 81.7,57 83.5,63.1 		"/>
	</g>
</g>
</svg>
