<?xml version="1.0" encoding="utf-8"?>
<!-- Generator: Adobe Illustrator 21.1.0, SVG Export Plug-In . SVG Version: 6.00 Build 0)  -->
<svg version="1.1" id="Layer_1" xmlns="http://www.w3.org/2000/svg" xmlns:xlink="http://www.w3.org/1999/xlink" x="0px" y="0px"
	 viewBox="0 0 92 115" style="enable-background:new 0 0 92 115;" xml:space="preserve">
<style type="text/css">
	.st0{fill:none;stroke:#FFFFFF;stroke-width:3;stroke-miterlimit:10;}
	.st1{fill:none;stroke:#FFFFFF;stroke-width:2;stroke-miterlimit:10;}
</style>
<g>
	<path class="st0" d="M31.3,84.1l-13.7,20.8c-1.9,2.9-5.3,4-7.6,2.5l0,0c-2.3-1.5-2.6-5.1-0.8-7.9l13.7-20.8"/>
	<path class="st0" d="M40.6,15.2C48.2,3.7,63.7,0.5,75.2,8.1s14.7,23.1,7.1,34.6"/>
	<path class="st0" d="M82.4,42.7L59.1,78.1c-5.9,9-15.3,13.4-20.8,9.8L16.6,73.6c-5.5-3.6-5.2-14,0.7-23l23.3-35.4"/>
	<path class="st0" d="M51.2,77.4c-5.5-3.6-7.1-11.1-3.4-16.6L62.1,39c3.6-5.5,11.1-7.1,16.6-3.4"/>
	<path class="st0" d="M48.1,15.5c5.6,3.5,7.2,11,3.7,16.6L37.9,54c-3.5,5.6-11,7.2-16.6,3.7"/>
</g>
<g>
	<path class="st1" d="M85.8,102.2c0,2.9-1.7,5.2-3.7,5.2c-2.1,0-3.7-2.3-3.7-5.2"/>
	<polyline class="st1" points="78.4,102.7 80.3,96.6 82.2,90.5 84,96.6 85.8,102.7 	"/>
</g>
<g>
	<path class="st1" d="M74,81.9c0.1,2.9-1.5,5.2-3.6,5.3s-3.8-2.2-3.9-5.1"/>
	<polyline class="st1" points="66.5,82.6 68.2,76.4 69.9,70.3 72,76.4 74,82.4 	"/>
</g>
<g>
	<path class="st1" d="M87.8,62.2c0,2.9-1.7,5.2-3.7,5.2c-2.1,0-3.7-2.3-3.7-5.2"/>
	<polyline class="st1" points="80.4,62.7 82.3,56.6 84.2,50.5 86,56.6 87.8,62.7 	"/>
</g>
</svg>
