<?xml version="1.0" encoding="utf-8"?>
<!-- Generator: Adobe Illustrator 21.1.0, SVG Export Plug-In . SVG Version: 6.00 Build 0)  -->
<svg version="1.1" id="Layer_1" xmlns="http://www.w3.org/2000/svg" xmlns:xlink="http://www.w3.org/1999/xlink" x="0px" y="0px"
	 viewBox="0 0 500 500" style="enable-background:new 0 0 500 500;" xml:space="preserve">
<style type="text/css">
	.st0{fill:none;stroke:#FFFFFF;stroke-width:3;stroke-miterlimit:10;}
	.st1{fill:none;stroke:#FFFFFF;stroke-width:2;stroke-miterlimit:10;}
	.st2{fill:none;}
</style>
<g>
	<g>
		<path class="st0" d="M173.8,120.9l-13.7,20.8c-1.9,2.9-5.3,4-7.6,2.5h0c-2.3-1.5-2.6-5.1-0.8-7.9l13.7-20.8"/>
		<path class="st0" d="M183.2,52.1c7.6-11.5,23.1-14.7,34.6-7.1c11.5,7.6,14.7,23.1,7.1,34.6"/>
		<path class="st0" d="M224.9,79.6l-23.3,35.4c-5.9,9-15.3,13.4-20.8,9.8l-21.7-14.3c-5.5-3.6-5.2-14,0.7-23l23.3-35.4"/>
		<path class="st0" d="M193.8,114.3c-5.5-3.6-7.1-11.1-3.4-16.6l14.3-21.7c3.6-5.5,11.1-7.1,16.6-3.4"/>
		<path class="st0" d="M190.7,52.4c5.6,3.5,7.2,11,3.7,16.6l-13.9,21.9c-3.5,5.6-11,7.2-16.6,3.7"/>
	</g>
	<g>
		<path class="st1" d="M228.4,139.1c0,2.9-1.7,5.2-3.7,5.2s-3.7-2.3-3.7-5.2"/>
		<polyline class="st1" points="220.9,139.6 222.8,133.5 224.7,127.4 226.6,133.5 228.4,139.6 		"/>
	</g>
	<g>
		<path class="st1" d="M216.5,118.8c0.1,2.9-1.5,5.2-3.6,5.3c-2.1,0.1-3.8-2.2-3.9-5.1"/>
		<polyline class="st1" points="209.1,119.5 210.8,113.3 212.5,107.2 214.5,113.2 216.5,119.3 		"/>
	</g>
	<g>
		<path class="st1" d="M230.4,99.1c0,2.9-1.7,5.2-3.7,5.2s-3.7-2.3-3.7-5.2"/>
		<polyline class="st1" points="222.9,99.6 224.8,93.5 226.7,87.4 228.6,93.5 230.4,99.6 		"/>
	</g>
</g>
<g>
	<path class="st2" d="M285.4,53c-1.5,1.7-3.9,4.8-7.2,9.2c-3.2,4.4-5.5,7.2-6.8,8.5s-2.4,1.9-3.2,1.9c-0.6,0-1.3-0.5-1.9-1.4
		s-1.4-2.9-2.4-5.8c-2-6-3.3-9.4-3.8-10.3c-0.2,0.5-0.4,1.4-0.6,2.6c-0.5,2.5-1.2,5.6-2,9.3c-1.6,7-2.5,11.6-2.7,13.9
		c0,0.3-0.3,0.6-0.8,0.9s-0.9,0.5-1.2,0.5c-0.6,0-1.1-0.3-1.6-0.8s-0.7-1.1-0.7-1.6c0-1.4,0.5-3.8,1.4-7.2l2-7.7
		c1.3-4.8,2-8.4,2.3-10.7s0.4-4.1,0.4-5.4c0-1.4,1.1-2,3.2-2c0.5,0,0.9,0.4,1.4,1.2s0.8,1.5,1,2.1c0.2,0.6,0.4,1.3,0.7,2l3.1,8.8
		c1.2,3.6,2,5.6,2.3,6.1s0.5,0.7,0.7,0.7c0.8-0.2,3.6-3.6,8.5-10.3c5.4-7.4,8.5-11.1,9.2-11.1c0.6,0,1.3,0.2,2.1,0.7
		s1.1,0.9,1.1,1.3c0,0.2-0.5,3.6-1.4,10.3c-0.3,2.5-0.6,5.5-0.9,8.9s-0.4,5.4-0.4,5.9c0,0.8,0.1,1.7,0.4,2.7
		c0.3,0.9,0.4,1.6,0.4,2.1c0,0.4-0.1,1-0.2,1.8s-0.5,1.3-1,1.4s-0.9,0.2-1.3,0.2c-1.6,0-2.5-1.4-2.5-4.1c0-2.5,0.5-8.6,1.6-18.4
		c0.1-0.8,0.1-1.3,0.1-1.5c0-0.1,0.1-0.6,0.3-1.6c0.1-0.8,0.2-1.4,0.2-2C285.5,53.5,285.5,53.2,285.4,53z"/>
	<path class="st2" d="M316.6,72.7c0,1.6-1.4,3.5-4.2,5.8s-5.7,3.4-8.7,3.4c-2.5,0-4.5-0.7-5.8-2.2s-2.1-3.6-2.1-6.2
		c0-4.5,1.5-8.7,4.5-12.8s6.3-6,9.9-6c1.2,0,2.1,0.4,2.9,1.1s1.1,1.7,1.1,2.8c0,2.4-1.2,4.7-3.5,6.9s-5.5,4.4-9.5,6.5
		c-0.8,0.4-1.2,1-1.2,1.6c0,1.3,0.4,2.3,1.1,3.1s1.9,1.2,3.3,1.2c3.4,0,6.8-1.9,10.3-5.6c0.5-0.5,0.9-0.8,1.2-0.8
		C316.4,71.5,316.6,71.9,316.6,72.7z M300.3,69.1c6.6-3.9,9.9-7.1,9.9-9.5c0-0.9-0.4-1.4-1.3-1.4c-1.4,0-3.1,1.1-4.9,3.2
		S301,66,300.3,69.1z"/>
	<path class="st2" d="M329.7,41c1.1,0,1.7,0.7,1.7,2.2c0,1.3-0.7,4.3-2,9.1c-0.9,3-1.5,6.4-2,10s-0.7,6.5-0.7,8.6
		c0,2.6,0.2,5.1,0.5,7.7c0.1,0.5,0.1,0.8,0.1,1.1c0,0.8-0.3,1.5-0.8,2s-1.1,0.8-1.7,0.8c-0.8,0-1.4-0.5-1.7-1.5s-0.5-2.7-0.5-5
		c0-5.2,0.6-11.7,1.9-19.5s2.3-12.3,3-13.6S328.9,41,329.7,41z"/>
	<path class="st2" d="M344.8,57c1.6-0.1,3.1-0.3,4.5-0.4c1.4-0.2,2.6-0.2,3.5-0.2c1.2,0,1.9,0.1,2.3,0.3s0.5,0.6,0.5,1.1
		c0,1.3-0.9,2-2.6,2.1c-2.3,0.1-4.4,0.3-6.3,0.6s-2.9,0.5-3.1,0.6s-0.6,2-1.4,5.6s-1.2,5.9-1.2,6.9c0,1.7,0.2,2.9,0.7,3.4
		s1.1,0.9,2,0.9c1.3,0,3.2-1,5.6-3c0.9-0.8,1.6-1.2,2.1-1.2c0.7,0,1,0.4,1,1.1c0,1.1-1.1,2.6-3.2,4.4s-4.4,2.7-6.6,2.7
		c-3.8,0-5.7-2.2-5.7-6.7c0-1.6,0.4-4.1,1.2-7.5c0.8-3.4,1.1-5.4,1.1-6c0-0.2-0.2-0.4-0.6-0.4l-2.4,0.2c-2,0-3-0.8-3-2.4
		c0-0.9,0.5-1.4,1.4-1.4h4.8c0.3,0,0.6-0.1,0.9-0.4s0.6-1.3,1.1-3s0.9-3.4,1.3-5c0.4-1.6,1.1-2.5,2.2-2.5c0.7,0,1.2,0.2,1.6,0.7
		s0.6,0.9,0.6,1.3c0,0.2-0.3,1.3-0.8,3.4L344.8,57z"/>
	<path class="st2" d="M377.8,72.7c0,1.6-1.4,3.5-4.2,5.8s-5.7,3.4-8.7,3.4c-2.5,0-4.5-0.7-5.8-2.2s-2.1-3.6-2.1-6.2
		c0-4.5,1.5-8.7,4.5-12.8s6.3-6,9.9-6c1.2,0,2.1,0.4,2.9,1.1s1.1,1.7,1.1,2.8c0,2.4-1.2,4.7-3.5,6.9s-5.5,4.4-9.5,6.5
		c-0.8,0.4-1.2,1-1.2,1.6c0,1.3,0.4,2.3,1.1,3.1s1.9,1.2,3.3,1.2c3.4,0,6.8-1.9,10.3-5.6c0.5-0.5,0.9-0.8,1.2-0.8
		C377.5,71.5,377.8,71.9,377.8,72.7z M361.5,69.1c6.6-3.9,9.9-7.1,9.9-9.5c0-0.9-0.4-1.4-1.3-1.4c-1.4,0-3.1,1.1-4.9,3.2
		S362.2,66,361.5,69.1z"/>
	<path class="st2" d="M399.5,71c-2.1,3.4-4.3,5.9-6.7,7.8s-4.5,2.7-6.5,2.7c-1.5,0-2.7-0.6-3.6-1.7s-1.3-2.7-1.3-4.7
		c0-4,1.6-8,4.8-12.2s6.7-6.2,10.4-6.2c1.6,0,3.1,0.7,4.5,2.1l3.3-15.3c0.2-1,0.7-1.8,1.3-2.1s1.1-0.5,1.5-0.5c1.1,0,1.6,1,1.6,2.9
		c0,0.3-0.4,1.6-1.1,3.8c-1.1,3.4-2.2,7.7-3.2,12.7s-1.5,9-1.5,12.1c0,3.1,0.7,4.7,2,4.7c0.9,0,1.8-0.3,2.7-0.9
		c0.4-0.3,0.8-0.4,1.1-0.4c0.5,0,0.8,0.3,0.8,1c0,0.8-0.7,1.7-2.1,2.8s-2.8,1.6-4.3,1.6c-2.6,0-3.9-2.5-3.9-7.5
		C399.4,72.7,399.4,71.8,399.5,71z M396.4,60c-2.5,0-5,1.7-7.5,5.1s-3.7,6.6-3.7,9.5c0,2,0.6,2.9,1.9,2.9c1.2,0,2.7-0.6,4.4-1.9
		s3.5-3.3,5.4-6.1s2.8-4.9,2.8-6.3c0-0.7-0.3-1.4-0.9-2.1S397.4,60,396.4,60z"/>
	<path class="st2" d="M254.9,110.4c-0.9-0.3-1.3-1.1-1.3-2.4c0-1,2.1-2,6.2-3s7.7-1.4,10.8-1.4c3.4,0,6.1,0.7,8.1,2.1s3,3.3,3,5.6
		c0,3.5-1.9,6.5-5.7,9.3s-8.9,4.7-15.4,6c-1.7,0.3-2.7,0.6-2.9,0.9s-0.4,1.6-0.5,4.2S257,136,257,137c0,0.7-0.2,1.3-0.7,1.9
		s-1,0.8-1.6,0.8c-1.4,0-2.1-0.9-2.1-2.8c0-1,0.3-3.8,0.8-8.5l1.7-13.9c0-0.2,0.1-0.9,0-2S255.1,110.7,254.9,110.4z M259.8,109.1
		c-0.1,0.5-0.2,1.3-0.3,2.5c-0.2,2.2-0.5,4.6-0.8,7.2c-0.2,1.4-0.3,2.9-0.5,4.5c5.1-0.7,9.7-2.1,13.7-4.3s6-4.6,6-7.1
		c0-3.2-2.5-4.8-7.4-4.8C267.1,107,263.6,107.7,259.8,109.1z"/>
	<path class="st2" d="M290.7,139.4c-2.1,0-3.9-0.8-5.3-2.4s-2.1-3.6-2.1-6c0-4,1.4-8,4.1-11.9s6-5.9,9.7-5.9c2.5,0,4.5,1,6.1,2.9
		s2.3,4.2,2.3,6.9c0,4.1-1.6,7.8-4.8,11.3S294.2,139.4,290.7,139.4z M287.4,130.4c0,1.6,0.3,2.9,1,3.9s1.5,1.5,2.6,1.5
		c2.3,0,4.7-1.3,7-3.8s3.5-5.4,3.5-8.5c0-1.9-0.4-3.5-1.3-4.7s-2.1-1.8-3.6-1.8c-2.5,0-4.7,1.5-6.5,4.6S287.4,127.6,287.4,130.4z"/>
	<path class="st2" d="M315.5,135.5c-0.8,2.8-1.5,6.8-2.2,11.8l-0.7,4.4c-0.1,0.6-0.4,1.2-0.9,1.9s-0.9,0.9-1.3,0.9
		c-0.5,0-1-0.2-1.7-0.7s-0.9-0.9-0.9-1.2c0-0.9,0.2-2,0.6-3.6c2.9-11.5,4.3-21.7,4.3-30.4l0-2c0-1.7,0.3-2.9,0.9-3.7
		s1.3-1.1,2.2-1.1c0.4,0,0.7,0.3,1.1,0.9s0.5,1.4,0.5,2.5c0,1.5-0.2,3.4-0.5,5.5c-0.4,2.7-0.6,4.3-0.6,4.7c2.3-4.1,4.8-7.2,7.4-9.5
		s5-3.4,7.3-3.4c1.6,0,2.9,0.6,4,1.8s1.6,2.6,1.6,4.4c0,5.1-2,9.7-5.9,13.9s-7.7,6.2-11.4,6.2c-0.9,0-1.7-0.2-2.2-0.7
		S316.1,136.8,315.5,135.5z M330.1,116.7c-2.2,0-4.9,2.1-8.2,6.2s-4.9,7.3-4.9,9.6c0,0.6,0.3,1.1,1,1.6s1.5,0.8,2.4,0.8
		c2.2,0,4.8-1.7,7.7-5s4.4-6.6,4.4-9.7c0-1.1-0.2-2-0.7-2.6S330.8,116.7,330.1,116.7z"/>
	<path class="st2" d="M353.8,132.9c0-1-1.3-2.2-3.8-3.5c-3.2-1.6-5.3-2.9-6.4-3.9s-1.7-2.1-1.7-3.3c0-3.1,1.6-5.7,4.7-7.7
		s5.7-3.1,7.6-3.1c1.3,0,2.2,0.2,2.8,0.7s0.9,1.2,0.9,2.3c0,0.5-0.2,0.9-0.6,1.2s-0.7,0.5-1,0.5c-0.2,0-0.5-0.1-1-0.4
		c-0.5-0.2-0.8-0.3-1-0.3c-0.8,0-2.4,0.6-4.8,1.7s-3.6,2.4-3.6,3.9c0,0.9,0.4,1.7,1.3,2.4s2.4,1.6,4.5,2.6c1.8,0.8,3.2,1.7,4.2,2.7
		s1.6,2.1,1.6,3.4c0,2.4-1.6,4.3-4.9,5.6s-6.4,2-9.4,2c-2.5,0-3.8-0.9-3.8-2.6c0-0.6,0.3-1,0.9-1.3s1.1-0.4,1.7-0.4
		c0.2,0,0.7,0.1,1.3,0.2c0.6,0.2,1.1,0.2,1.3,0.2c1.7,0,3.6-0.3,5.6-0.9S353.4,133.8,353.8,132.9z"/>
	<path class="st2" d="M366.9,133.1c0,1.2,0.2,2.5,0.5,4c0.1,0.3,0.1,0.5,0.1,0.7c0,0.3-0.3,0.6-0.8,1.1s-1.1,0.7-1.6,0.7
		c-1.5,0-2.3-1.4-2.3-4.2c0-2.9,0.6-7.4,1.8-13.6c0.4-2.2,0.6-3.5,0.6-4c0-1,0.2-1.8,0.5-2.5s0.9-1,1.5-1c0.8,0,1.4,0.2,1.9,0.6
		s0.7,0.8,0.7,1.3s-0.1,1.1-0.3,1.9c-1.2,4.1-1.9,7.1-2.2,8.9S366.9,130.6,366.9,133.1z M369.9,106.9c-0.3,0-0.6-0.4-0.8-1.1
		c-0.1-0.2-0.1-0.5-0.3-0.7c-0.4-1-0.6-1.9-0.6-2.6c0-0.6,0.4-1.3,1.1-1.9s1.6-1,2.5-1c0.5,0,1,0.2,1.5,0.5s0.8,0.7,0.8,1
		c0,0.5-0.2,1.4-0.6,2.6s-1,2.1-1.8,2.5S370.4,106.9,369.9,106.9z"/>
	<path class="st2" d="M382.7,139.6c-2.3,0-4.1-0.7-5.4-2s-1.9-3.2-1.9-5.6c0-4.1,1.6-8.4,4.9-12.9s6.2-6.8,9-6.8
		c1.3,0,2.4,0.7,3.3,2.1s1.4,2.8,1.4,4.3c0,0.9-0.2,1.7-0.6,2.4s-0.8,1-1.2,1c-0.9,0-1.5-0.9-1.9-2.7c-0.4-2-1-3-1.8-3
		c-1.6,0-3.5,1.9-5.8,5.8s-3.3,7.1-3.3,9.8s1.5,4,4.5,4c2.3,0,5-1.1,8.1-3.2c1.1-0.8,1.9-1.1,2.4-1.1c0.5,0,0.8,0.3,0.8,0.9
		c0,1.2-1.4,2.7-4.2,4.5S385.4,139.6,382.7,139.6z"/>
	<path class="st2" d="M408.8,98.6c1.1,0,1.7,0.7,1.7,2.2c0,1.3-0.7,4.3-2,9.1c-0.9,3-1.5,6.4-2,10s-0.7,6.5-0.7,8.6
		c0,2.6,0.2,5.1,0.5,7.7c0.1,0.5,0.1,0.8,0.1,1.1c0,0.8-0.3,1.5-0.8,2s-1.1,0.8-1.7,0.8c-0.8,0-1.4-0.5-1.7-1.5s-0.5-2.7-0.5-5
		c0-5.2,0.6-11.7,1.9-19.5s2.3-12.3,3-13.6S408,98.6,408.8,98.6z"/>
	<path class="st2" d="M434.4,130.3c0,1.6-1.4,3.5-4.2,5.8s-5.7,3.4-8.7,3.4c-2.5,0-4.5-0.7-5.8-2.2s-2.1-3.6-2.1-6.2
		c0-4.5,1.5-8.7,4.5-12.8s6.3-6,9.9-6c1.2,0,2.1,0.4,2.9,1.1s1.1,1.7,1.1,2.8c0,2.4-1.2,4.7-3.5,6.9s-5.5,4.4-9.5,6.5
		c-0.8,0.4-1.2,1-1.2,1.6c0,1.3,0.4,2.3,1.1,3.1s1.9,1.2,3.3,1.2c3.4,0,6.8-1.9,10.3-5.6c0.5-0.5,0.9-0.8,1.2-0.8
		C434.1,129.1,434.4,129.5,434.4,130.3z M418.1,126.7c6.6-3.9,9.9-7.1,9.9-9.5c0-0.9-0.4-1.4-1.3-1.4c-1.4,0-3.1,1.1-4.9,3.2
		S418.8,123.6,418.1,126.7z"/>
</g>
</svg>
