<?xml version="1.0" encoding="utf-8"?>
<!-- Generator: Adobe Illustrator 21.1.0, SVG Export Plug-In . SVG Version: 6.00 Build 0)  -->
<svg version="1.1" id="Layer_1" xmlns="http://www.w3.org/2000/svg" xmlns:xlink="http://www.w3.org/1999/xlink" x="0px" y="0px"
	 viewBox="0 0 295.9 125.5" style="enable-background:new 0 0 295.9 125.5;" xml:space="preserve">
<style type="text/css">
	.st0{fill:none;stroke:#7FA00E;stroke-width:3;stroke-miterlimit:10;}
	.st1{fill:none;stroke:#7FA00E;stroke-width:2;stroke-miterlimit:10;}
	.st2{fill:#7FA00E;}
</style>
<g>
	<g>
		<path class="st0" d="M29.5,87.3l-13.7,20.8c-1.9,2.9-5.3,4-7.6,2.5l0,0c-2.3-1.5-2.6-5.1-0.8-7.9l13.7-20.8"/>
		<path class="st0" d="M38.8,18.4c7.6-11.5,23.1-14.7,34.6-7.1s14.7,23.1,7.1,34.6"/>
		<path class="st0" d="M80.6,45.9L57.3,81.4c-5.9,9-15.3,13.4-20.8,9.8L14.8,76.8c-5.5-3.6-5.2-14,0.7-23l23.3-35.4"/>
		<path class="st0" d="M49.4,80.6c-5.5-3.6-7.1-11.1-3.4-16.6l14.3-21.7c3.6-5.5,11.1-7.1,16.6-3.4"/>
		<path class="st0" d="M46.3,18.7c5.6,3.5,7.2,11,3.7,16.6L36.1,57.2c-3.5,5.6-11,7.2-16.6,3.7"/>
	</g>
	<g>
		<path class="st1" d="M84.1,105.4c0,2.9-1.7,5.2-3.7,5.2c-2.1,0-3.7-2.3-3.7-5.2"/>
		<polyline class="st1" points="76.6,105.9 78.5,99.8 80.4,93.7 82.2,99.8 84.1,105.9 		"/>
	</g>
	<g>
		<path class="st1" d="M72.2,85.1c0.1,2.9-1.5,5.2-3.6,5.3c-2.1,0.1-3.8-2.2-3.9-5.1"/>
		<polyline class="st1" points="64.7,85.8 66.4,79.6 68.1,73.5 70.2,79.6 72.2,85.6 		"/>
	</g>
	<g>
		<path class="st1" d="M86.1,65.4c0,2.9-1.7,5.2-3.7,5.2c-2.1,0-3.7-2.3-3.7-5.2"/>
		<polyline class="st1" points="78.6,65.9 80.5,59.8 82.4,53.7 84.2,59.8 86.1,65.9 		"/>
	</g>
</g>
<g>
	<path class="st2" d="M141,19.3c-1.5,1.7-3.9,4.8-7.2,9.2c-3.2,4.4-5.5,7.2-6.8,8.5s-2.4,1.9-3.2,1.9c-0.6,0-1.3-0.5-1.9-1.4
		s-1.4-2.9-2.4-5.8c-2-6-3.3-9.4-3.8-10.3c-0.2,0.5-0.4,1.4-0.6,2.6c-0.5,2.5-1.2,5.6-2,9.3c-1.6,7-2.5,11.6-2.7,13.9
		c0,0.3-0.3,0.6-0.8,0.9s-0.9,0.5-1.2,0.5c-0.6,0-1.1-0.3-1.6-0.8s-0.7-1.1-0.7-1.6c0-1.4,0.5-3.8,1.4-7.2l2-7.7
		c1.3-4.8,2-8.4,2.3-10.7s0.4-4.1,0.4-5.4c0-1.4,1.1-2,3.2-2c0.5,0,0.9,0.4,1.4,1.2s0.8,1.5,1,2.1c0.2,0.6,0.4,1.3,0.7,2l3.1,8.8
		c1.2,3.6,2,5.6,2.3,6.1s0.5,0.7,0.7,0.7c0.8-0.2,3.6-3.6,8.5-10.3c5.4-7.4,8.5-11.1,9.2-11.1c0.6,0,1.3,0.2,2.1,0.7
		s1.1,0.9,1.1,1.3c0,0.2-0.5,3.6-1.4,10.3c-0.3,2.5-0.6,5.5-0.9,8.9s-0.4,5.4-0.4,5.9c0,0.8,0.1,1.7,0.4,2.7
		c0.3,0.9,0.4,1.6,0.4,2.1c0,0.4-0.1,1-0.2,1.8s-0.5,1.3-1,1.4s-0.9,0.2-1.3,0.2c-1.6,0-2.5-1.4-2.5-4.1c0-2.5,0.5-8.6,1.6-18.4
		c0.1-0.8,0.1-1.3,0.1-1.5c0-0.1,0.1-0.6,0.3-1.6c0.1-0.8,0.2-1.4,0.2-2C141.2,19.9,141.1,19.5,141,19.3z"/>
	<path class="st2" d="M172.3,39c0,1.6-1.4,3.5-4.2,5.8s-5.7,3.4-8.7,3.4c-2.5,0-4.5-0.7-5.8-2.2s-2.1-3.6-2.1-6.2
		c0-4.5,1.5-8.7,4.5-12.8s6.3-6,9.9-6c1.2,0,2.1,0.4,2.9,1.1s1.1,1.7,1.1,2.8c0,2.4-1.2,4.7-3.5,6.9s-5.5,4.4-9.5,6.5
		c-0.8,0.4-1.2,1-1.2,1.6c0,1.3,0.4,2.3,1.1,3.1s1.9,1.2,3.3,1.2c3.4,0,6.8-1.9,10.3-5.6c0.5-0.5,0.9-0.8,1.2-0.8
		C172,37.8,172.3,38.2,172.3,39z M156,35.4c6.6-3.9,9.9-7.1,9.9-9.5c0-0.9-0.4-1.4-1.3-1.4c-1.4,0-3.1,1.1-4.9,3.2
		S156.7,32.3,156,35.4z"/>
	<path class="st2" d="M185.4,7.3c1.1,0,1.7,0.7,1.7,2.2c0,1.3-0.7,4.3-2,9.1c-0.9,3-1.5,6.4-2,10s-0.7,6.5-0.7,8.6
		c0,2.6,0.2,5.1,0.5,7.7c0.1,0.5,0.1,0.8,0.1,1.1c0,0.8-0.3,1.5-0.8,2s-1.1,0.8-1.7,0.8c-0.8,0-1.4-0.5-1.7-1.5s-0.5-2.7-0.5-5
		c0-5.2,0.6-11.7,1.9-19.5s2.3-12.3,3-13.6S184.6,7.3,185.4,7.3z"/>
	<path class="st2" d="M200.4,23.3c1.6-0.1,3.1-0.3,4.5-0.4c1.4-0.2,2.6-0.2,3.5-0.2c1.2,0,1.9,0.1,2.3,0.3s0.5,0.6,0.5,1.1
		c0,1.3-0.9,2-2.6,2.1c-2.3,0.1-4.4,0.3-6.3,0.6s-2.9,0.5-3.1,0.6s-0.6,2-1.4,5.6s-1.2,5.9-1.2,6.9c0,1.7,0.2,2.9,0.7,3.4
		s1.1,0.9,2,0.9c1.3,0,3.2-1,5.6-3c0.9-0.8,1.6-1.2,2.1-1.2c0.7,0,1,0.4,1,1.1c0,1.1-1.1,2.6-3.2,4.4s-4.4,2.7-6.6,2.7
		c-3.8,0-5.7-2.2-5.7-6.7c0-1.6,0.4-4.1,1.2-7.5c0.8-3.4,1.1-5.4,1.1-6c0-0.2-0.2-0.4-0.6-0.4l-2.4,0.2c-2,0-3-0.8-3-2.4
		c0-0.9,0.5-1.4,1.4-1.4h4.8c0.3,0,0.6-0.1,0.9-0.4s0.6-1.3,1.1-3s0.9-3.4,1.3-5c0.4-1.6,1.1-2.5,2.2-2.5c0.7,0,1.2,0.2,1.6,0.7
		s0.6,0.9,0.6,1.3c0,0.2-0.3,1.3-0.8,3.4L200.4,23.3z"/>
	<path class="st2" d="M233.5,39c0,1.6-1.4,3.5-4.2,5.8s-5.7,3.4-8.7,3.4c-2.5,0-4.5-0.7-5.8-2.2s-2.1-3.6-2.1-6.2
		c0-4.5,1.5-8.7,4.5-12.8s6.3-6,9.9-6c1.2,0,2.1,0.4,2.9,1.1s1.1,1.7,1.1,2.8c0,2.4-1.2,4.7-3.5,6.9s-5.5,4.4-9.5,6.5
		c-0.8,0.4-1.2,1-1.2,1.6c0,1.3,0.4,2.3,1.1,3.1s1.9,1.2,3.3,1.2c3.4,0,6.8-1.9,10.3-5.6c0.5-0.5,0.9-0.8,1.2-0.8
		C233.2,37.8,233.5,38.2,233.5,39z M217.2,35.4c6.6-3.9,9.9-7.1,9.9-9.5c0-0.9-0.4-1.4-1.3-1.4c-1.4,0-3.1,1.1-4.9,3.2
		S217.9,32.3,217.2,35.4z"/>
	<path class="st2" d="M255.2,37.3c-2.1,3.4-4.3,5.9-6.7,7.8s-4.5,2.7-6.5,2.7c-1.5,0-2.7-0.6-3.6-1.7s-1.3-2.7-1.3-4.7
		c0-4,1.6-8,4.8-12.2s6.7-6.2,10.4-6.2c1.6,0,3.1,0.7,4.5,2.1l3.3-15.3c0.2-1,0.7-1.8,1.3-2.1s1.1-0.5,1.5-0.5c1.1,0,1.6,1,1.6,2.9
		c0,0.3-0.4,1.6-1.1,3.8c-1.1,3.4-2.2,7.7-3.2,12.7s-1.5,9-1.5,12.1c0,3.1,0.7,4.7,2,4.7c0.9,0,1.8-0.3,2.7-0.9
		c0.4-0.3,0.8-0.4,1.1-0.4c0.5,0,0.8,0.3,0.8,1c0,0.8-0.7,1.7-2.1,2.8s-2.8,1.6-4.3,1.6c-2.6,0-3.9-2.5-3.9-7.5
		C255,39,255.1,38.1,255.2,37.3z M252.1,26.3c-2.5,0-5,1.7-7.5,5.1s-3.7,6.6-3.7,9.5c0,2,0.6,2.9,1.9,2.9c1.2,0,2.7-0.6,4.4-1.9
		s3.5-3.3,5.4-6.1s2.8-4.9,2.8-6.3c0-0.7-0.3-1.4-0.9-2.1S253,26.3,252.1,26.3z"/>
	<path class="st2" d="M110.6,76.7c-0.9-0.3-1.3-1.1-1.3-2.4c0-1,2.1-2,6.2-3s7.7-1.4,10.8-1.4c3.4,0,6.1,0.7,8.1,2.1s3,3.3,3,5.6
		c0,3.5-1.9,6.5-5.7,9.3s-8.9,4.7-15.4,6c-1.7,0.3-2.7,0.6-2.9,0.9s-0.4,1.6-0.5,4.2s-0.2,4.3-0.2,5.3c0,0.7-0.2,1.3-0.7,1.9
		s-1,0.8-1.6,0.8c-1.4,0-2.1-0.9-2.1-2.8c0-1,0.3-3.8,0.8-8.5l1.7-13.9c0-0.2,0.1-0.9,0-2S110.8,77,110.6,76.7z M115.4,75.4
		c-0.1,0.5-0.2,1.3-0.3,2.5c-0.2,2.2-0.5,4.6-0.8,7.2c-0.2,1.4-0.3,2.9-0.5,4.5c5.1-0.7,9.7-2.1,13.7-4.3s6-4.6,6-7.1
		c0-3.2-2.5-4.8-7.4-4.8C122.8,73.4,119.3,74,115.4,75.4z"/>
	<path class="st2" d="M146.4,105.7c-2.1,0-3.9-0.8-5.3-2.4s-2.1-3.6-2.1-6c0-4,1.4-8,4.1-11.9s6-5.9,9.7-5.9c2.5,0,4.5,1,6.1,2.9
		s2.3,4.2,2.3,6.9c0,4.1-1.6,7.8-4.8,11.3S149.8,105.7,146.4,105.7z M143.1,96.7c0,1.6,0.3,2.9,1,3.9s1.5,1.5,2.6,1.5
		c2.3,0,4.7-1.3,7-3.8s3.5-5.4,3.5-8.5c0-1.9-0.4-3.5-1.3-4.7s-2.1-1.8-3.6-1.8c-2.5,0-4.7,1.5-6.5,4.6S143.1,93.9,143.1,96.7z"/>
	<path class="st2" d="M171.2,101.9c-0.8,2.8-1.5,6.8-2.2,11.8l-0.7,4.4c-0.1,0.6-0.4,1.2-0.9,1.9s-0.9,0.9-1.3,0.9
		c-0.5,0-1-0.2-1.7-0.7s-0.9-0.9-0.9-1.2c0-0.9,0.2-2,0.6-3.6c2.9-11.5,4.3-21.7,4.3-30.4l0-2c0-1.7,0.3-2.9,0.9-3.7
		s1.3-1.1,2.2-1.1c0.4,0,0.7,0.3,1.1,0.9s0.5,1.4,0.5,2.5c0,1.5-0.2,3.4-0.5,5.5c-0.4,2.7-0.6,4.3-0.6,4.7c2.3-4.1,4.8-7.2,7.4-9.5
		s5-3.4,7.3-3.4c1.6,0,2.9,0.6,4,1.8s1.6,2.6,1.6,4.4c0,5.1-2,9.7-5.9,13.9s-7.7,6.2-11.4,6.2c-0.9,0-1.7-0.2-2.2-0.7
		S171.8,103.1,171.2,101.9z M185.7,83c-2.2,0-4.9,2.1-8.2,6.2s-4.9,7.3-4.9,9.6c0,0.6,0.3,1.1,1,1.6s1.5,0.8,2.4,0.8
		c2.2,0,4.8-1.7,7.7-5s4.4-6.6,4.4-9.7c0-1.1-0.2-2-0.7-2.6S186.4,83,185.7,83z"/>
	<path class="st2" d="M209.5,99.2c0-1-1.3-2.2-3.8-3.5c-3.2-1.6-5.3-2.9-6.4-3.9s-1.7-2.1-1.7-3.3c0-3.1,1.6-5.7,4.7-7.7
		s5.7-3.1,7.6-3.1c1.3,0,2.2,0.2,2.8,0.7s0.9,1.2,0.9,2.3c0,0.5-0.2,0.9-0.6,1.2s-0.7,0.5-1,0.5c-0.2,0-0.5-0.1-1-0.4
		c-0.5-0.2-0.8-0.3-1-0.3c-0.8,0-2.4,0.6-4.8,1.7s-3.6,2.4-3.6,3.9c0,0.9,0.4,1.7,1.3,2.4s2.4,1.6,4.5,2.6c1.8,0.8,3.2,1.7,4.2,2.7
		s1.6,2.1,1.6,3.4c0,2.4-1.6,4.3-4.9,5.6s-6.4,2-9.4,2c-2.5,0-3.8-0.9-3.8-2.6c0-0.6,0.3-1,0.9-1.3s1.1-0.4,1.7-0.4
		c0.2,0,0.7,0.1,1.3,0.2c0.6,0.2,1.1,0.2,1.3,0.2c1.7,0,3.6-0.3,5.6-0.9S209,100.1,209.5,99.2z"/>
	<path class="st2" d="M222.5,99.4c0,1.2,0.2,2.5,0.5,4c0.1,0.3,0.1,0.5,0.1,0.7c0,0.3-0.3,0.6-0.8,1.1s-1.1,0.7-1.6,0.7
		c-1.5,0-2.3-1.4-2.3-4.2c0-2.9,0.6-7.4,1.8-13.6c0.4-2.2,0.6-3.5,0.6-4c0-1,0.2-1.8,0.5-2.5s0.9-1,1.5-1c0.8,0,1.4,0.2,1.9,0.6
		s0.7,0.8,0.7,1.3s-0.1,1.1-0.3,1.9c-1.2,4.1-1.9,7.1-2.2,8.9S222.5,96.9,222.5,99.4z M225.6,73.2c-0.3,0-0.6-0.4-0.8-1.1
		c-0.1-0.2-0.1-0.5-0.3-0.7c-0.4-1-0.6-1.9-0.6-2.6c0-0.6,0.4-1.3,1.1-1.9s1.6-1,2.5-1c0.5,0,1,0.2,1.5,0.5s0.8,0.7,0.8,1
		c0,0.5-0.2,1.4-0.6,2.6s-1,2.1-1.8,2.5S226,73.2,225.6,73.2z"/>
	<path class="st2" d="M238.3,105.9c-2.3,0-4.1-0.7-5.4-2s-1.9-3.2-1.9-5.6c0-4.1,1.6-8.4,4.9-12.9s6.2-6.8,9-6.8
		c1.3,0,2.4,0.7,3.3,2.1s1.4,2.8,1.4,4.3c0,0.9-0.2,1.7-0.6,2.4s-0.8,1-1.2,1c-0.9,0-1.5-0.9-1.9-2.7c-0.4-2-1-3-1.8-3
		c-1.6,0-3.5,1.9-5.8,5.8s-3.3,7.1-3.3,9.8s1.5,4,4.5,4c2.3,0,5-1.1,8.1-3.2c1.1-0.8,1.9-1.1,2.4-1.1c0.5,0,0.8,0.3,0.8,0.9
		c0,1.2-1.4,2.7-4.2,4.5S241,105.9,238.3,105.9z"/>
	<path class="st2" d="M264.5,64.9c1.1,0,1.7,0.7,1.7,2.2c0,1.3-0.7,4.3-2,9.1c-0.9,3-1.5,6.4-2,10s-0.7,6.5-0.7,8.6
		c0,2.6,0.2,5.1,0.5,7.7c0.1,0.5,0.1,0.8,0.1,1.1c0,0.8-0.3,1.5-0.8,2s-1.1,0.8-1.7,0.8c-0.8,0-1.4-0.5-1.7-1.5s-0.5-2.7-0.5-5
		c0-5.2,0.6-11.7,1.9-19.5s2.3-12.3,3-13.6S263.7,64.9,264.5,64.9z"/>
	<path class="st2" d="M290.1,96.6c0,1.6-1.4,3.5-4.2,5.8s-5.7,3.4-8.7,3.4c-2.5,0-4.5-0.7-5.8-2.2s-2.1-3.6-2.1-6.2
		c0-4.5,1.5-8.7,4.5-12.8s6.3-6,9.9-6c1.2,0,2.1,0.4,2.9,1.1s1.1,1.7,1.1,2.8c0,2.4-1.2,4.7-3.5,6.9s-5.5,4.4-9.5,6.5
		c-0.8,0.4-1.2,1-1.2,1.6c0,1.3,0.4,2.3,1.1,3.1s1.9,1.2,3.3,1.2c3.4,0,6.8-1.9,10.3-5.6c0.5-0.5,0.9-0.8,1.2-0.8
		C289.8,95.4,290.1,95.8,290.1,96.6z M273.8,93c6.6-3.9,9.9-7.1,9.9-9.5c0-0.9-0.4-1.4-1.3-1.4c-1.4,0-3.1,1.1-4.9,3.2
		S274.5,89.9,273.8,93z"/>
</g>
</svg>
